# AST/ASF file generated using VICON BodyLanguage
# -----------------------------------------------
:version 1.10
:name VICON
:units
  mass 1.0
  length 0.45
  angle deg
:documentation
   .ast/.asf automatically generated from VICON data using
   VICON BodyBuilder and BodyLanguage model FoxedUp or BRILLIANT.MOD
:root
   order TX TY TZ RX RY RZ
   axis XYZ
   position 0 0 0  
   orientation 0 0 0 
:bonedata
  begin
     id 1 
     name lhipjoint
     direction 0.621036 -0.695554 0.361275 
     length 2.46325 
     axis 0 0 0  XYZ
  end
  begin
     id 2 
     name lfemur
     direction 0.34202 -0.939693 0  
     length 6.54784  
     axis 0 0 20  XYZ
    dof rx ry rz
    limits (-160.0 20.0)
           (-70.0 70.0)
           (-60.0 70.0)
  end
  begin
     id 3 
     name ltibia
     direction 0.34202 -0.939693 0   
     length 7.84737   
     axis 0 0 20   XYZ
    dof rx
    limits (-10.0 170.0)
  end
  begin
     id 4 
     name lfoot
     direction 0.0790693 -0.217241 0.97291   
     length 2.59747   
     axis -90 7.62852e-016 20   XYZ
    dof rx rz
    limits (-45.0 90.0)
           (-70.0 20.0)
  end
  begin
     id 5 
     name ltoes
     direction 1.53572e-011 -4.21898e-011 1   
     length 1.29919   
     axis -90 7.62852e-016 20   XYZ
    dof rx
    limits (-90.0 20.0)
  end
  begin
     id 6 
     name rhipjoint
     direction -0.602353 -0.708375 0.367935   
     length 2.41867  
     axis 0 0 0  XYZ 
  end
  begin
     id 7 
     name rfemur
     direction -0.34202 -0.939693 0   
     length 6.92065   
     axis 0 0 -20   XYZ
    dof rx ry rz
    limits (-160.0 20.0)
           (-70.0 70.0)
           (-70.0 60.0)
  end
  begin
     id 8 
     name rtibia
     direction -0.34202 -0.939693 0   
     length 7.88883   
     axis 0 0 -20   XYZ
    dof rx
    limits (-10.0 170.0)
 end
 begin
     id 9 
     name rfoot
     direction -0.0768692 -0.211196 0.974416   
     length 2.43714  
     axis -90 -7.62852e-016 -20   XYZ
    dof rx rz
    limits (-45.0 90.0)
           (-20.0 70.0)
  end
  begin
     id 10 
     name rtoes
     direction -1.53575e-011 -4.21933e-011 1   
     length 1.22113   
     axis -90 -7.62852e-016 -20   XYZ
    dof rx
    limits (-90.0 20.0)
  end
  begin
     id 11 
     name lowerback
     direction 0.0197937 0.98943 -0.143655   
     length 2.16931   
     axis 0 0 0   XYZ
    dof rx ry rz
    limits (-20.0 45.0)
           (-30.0 30.0)
           (-30.0 30.0)
  end
  begin
     id 12 
     name upperback
     direction -0.00183968 0.999975 0.00684288   
     length 2.17221   
     axis 0 0 0   XYZ
    dof rx ry rz
    limits (-20.0 45.0)
           (-30.0 30.0)
           (-30.0 30.0)
  end
  begin
     id 13 
     name thorax
     direction -0.00950244 0.997208 0.0740685   
     length 2.22549   
     axis 0 0 0   XYZ
    dof rx ry rz
    limits (-20.0 45.0)
           (-30.0 30.0)
           (-30.0 30.0)
  end
  begin
     id 14 
     name lowerneck
     direction 0.0218238 0.996215 0.0841425   
     length 1.77269   
     axis 0 0 0   XYZ
    dof rx ry rz
    limits (-20.0 45.0)
           (-30.0 30.0)
           (-30.0 30.0)
  end
  begin
     id 15 
     name upperneck
     direction -0.00430652 0.994214 -0.107332   
     length 1.76534   
     axis 0 0 0   XYZ
    dof rx ry rz
    limits (-20.0 45.0)
           (-30.0 30.0)
           (-30.0 30.0)
  end
  begin
     id 16
     name head
     direction -0.00328946 0.998959 -0.0454998  
     length 1.82634  
     axis 0 0 0   XYZ
    dof rx ry rz
    limits (-20.0 45.0)
           (-30.0 30.0)
           (-30.0 30.0)
  end
  begin
     id 17 
     name lclavicle
     direction 0.970962 0.239191 0.00450212  
     length 3.84872  
     axis 0 0 0   XYZ
    dof ry rz
    limits (-20.0 10.0)
           (0.0 20.0)
  end
  begin
     id 18 
     name lhumerus
     direction 1 -4.48966e-011 5.74696e-028   
     length 5.22771   
     axis 180 -30 -90   XYZ
    dof rx ry rz
    limits (-60.0 90.0)
           (-90.0 90.0)
           (-90.0 90.0)
  end
  begin
     id 19
     name lradius
     direction 1 -4.4896e-011 4.25109e-027   
     length 3.45251   
     axis 180 -30 -90   XYZ
    dof rx
    limits (-10.0 170.0)
  end
  begin
     id 20
     name lwrist
     direction 1 -4.48971e-011 1.15382e-027   
     length 1.72626   
     axis -5.52449e-016 90 90   XYZ
    dof ry
    limits (-180.0 0.0)
 end
  begin
     id 21 
     name lhand
     direction 1 -4.49034e-011 2.30765e-027   
     length 0.552119   
     axis -1.47248e-015 90 90   XYZ
    dof rx rz
    limits (-90.0 90.0)
           (-45.0 45.0)
  end
  begin
     id 22 
     name lfingers
     direction 1 -4.48951e-011 4.61529e-027   
     length 0.445133   
     axis -2.94495e-015 90 90   XYZ
    dof rx
    limits (0.0 90.0)
  end
  begin
     id 23
     name lthumb
     direction 0.707107 -6.34991e-011 0.707107   
     length 0.639124   
     axis -90 45 2.85299e-015   XYZ
    dof rx rz
    limits (-45.0 45.0)
           (-45.0 45.0)
  end
  begin
     id 24 
     name rclavicle
     direction -0.97424 0.222511 -0.0366699   
     length 3.73439  
     axis 0 0 0   XYZ 
    dof ry rz
    limits (-10.0 20.0)
           (-20.0 0.0)
  end
  begin
     id 25 
     name rhumerus
     direction -1 -4.48956e-011 -4.97258e-028  
     length 5.2398   
     axis 180 30 90   XYZ
    dof rx ry rz
    limits (-90.0 60.0)
           (-90.0 90.0)
           (-90.0 90.0)
  end
  begin
     id 26 
     name rradius
     direction -1 -4.4897e-011 -1.72611e-027   
     length 3.48042   
     axis 180 30 90   XYZ
    dof rx
    limits (-10.0 170.0)
  end
  begin
     id 27 
     name rwrist
     direction -1 -4.48976e-011 1.15382e-027   
     length 1.74021   
     axis -5.52449e-016 -90 -90   XYZ
    dof ry
    limits (-180.0 0.0)
  end
  begin
     id 28
     name rhand
     direction -1 -4.48963e-011 2.30765e-027   
     length 0.618713   
     axis -1.47248e-015 -90 -90   XYZ
    dof rx rz
    limits (-90.0 90.0)
           (-45.0 45.0)
  end
  begin
     id 29
     name rfingers
     direction -1 -4.4888e-011 4.61529e-027   
     length 0.498823   
     axis -2.94495e-015 -90 -90   XYZ
    dof rx
    limits (0.0 90.0)
  end
  begin
     id 30
     name rthumb
     direction -0.707107 -6.34968e-011 0.707107   
     length 0.716213   
     axis -90 -45 -2.85299e-015   XYZ
    dof rx rz
    limits (-45.0 45.0)
           (-45.0 45.0)
  end
:hierarchy
  begin
    root lhipjoint rhipjoint lowerback
    lhipjoint lfemur
    lfemur ltibia
    ltibia lfoot
    lfoot ltoes
    rhipjoint rfemur
    rfemur rtibia
    rtibia rfoot
    rfoot rtoes
    lowerback upperback
    upperback thorax
    thorax lowerneck lclavicle rclavicle
    lowerneck upperneck
    upperneck head
    lclavicle lhumerus
    lhumerus lradius
    lradius lwrist
    lwrist lhand lthumb
    lhand lfingers
    rclavicle rhumerus
    rhumerus rradius
    rradius rwrist
    rwrist rhand rthumb
    rhand rfingers
  end

#!OML:ASF G:\JayActor3\Patient Classification 1\Patient 1\Session 5\male.ASF
:FULLY-SPECIFIED
:DEGREES
104
root 46.6182 17.3657 -4.63928 -27.1464 85.6022 -53.7118
lowerback 15.5017 -1.33846 3.74268
upperback 4.71017 -0.980119 -0.140339
thorax -3.75207 -0.395986 -2.09034
lowerneck 2.2503 0.457142 2.51521
upperneck -17.8859 1.33847 0.832723
head -5.76049 0.600498 -0.249723
rclavicle -2.10712e-014 -3.18055e-014
rhumerus -27.1119 1.44359 -90.0631
rradius 30.7722
rwrist -0.346785
rhand -21.8806 -8.87299
rfingers 7.12502
rthumb 4.5241 -38.8047
lclavicle -2.10712e-014 -3.18055e-014
lhumerus -28.5471 -0.28476 85.7002
lradius 37.7377
lwrist 27.6529
lhand -19.9869 12.4398
lfingers 7.12502
lthumb 6.35249 42.3245
rfemur -40.4595 3.91605 22.1388
rtibia 29.761
rfoot -3.63893 -9.5721
rtoes 2.76376
lfemur -33.836 11.5685 -21.6334
ltibia 17.9965
lfoot 4.01948 -8.17143
ltoes -20.3037
105
root 46.6141 17.4028 -4.63985 -26.9457 85.5883 -53.543
lowerback 15.5325 -1.33542 3.70119
upperback 4.7358 -0.979862 -0.139164
thorax -3.74089 -0.39461 -2.06556
lowerneck 2.25393 0.481522 2.54626
upperneck -17.8085 1.3619 0.784052
head -5.73605 0.612839 -0.271039
rclavicle -1.59028e-014 -9.54166e-015
rhumerus -27.053 1.52415 -90.0814
rradius 30.8697
rwrist -0.379567
rhand -21.8897 -8.82133
rfingers 7.12502
rthumb 4.51529 -38.7532
lclavicle -1.59028e-014 -9.54166e-015
lhumerus -28.5382 -0.376534 85.7249
lradius 37.8644
lwrist 27.7069
lhand -19.9333 12.4382
lfingers 7.12502
lthumb 6.4042 42.3214
rfemur -40.5669 3.63877 22.2079
rtibia 29.7031
rfoot -2.76367 -9.51341
rtoes 2.64872
lfemur -33.9384 11.3464 -21.5393
ltibia 17.9944
lfoot 4.76231 -7.93842
ltoes -21.0436
106
root 46.6106 17.4372 -4.64059 -26.8271 85.5853 -53.4344
lowerback 15.5541 -1.33683 3.66206
upperback 4.76732 -0.985324 -0.13794
thorax -3.71898 -0.395692 -2.04112
lowerneck 2.25164 0.504554 2.5736
upperneck -17.7036 1.383 0.744298
head -5.70206 0.623599 -0.288578
rclavicle -8.74653e-015 -2.22639e-014
rhumerus -27.0079 1.59268 -90.0921
rradius 30.975
rwrist -0.431814
rhand -21.9036 -8.7694
rfingers 7.12502
rthumb 4.50188 -38.7016
lclavicle -8.74653e-015 -2.22639e-014
lhumerus -28.5349 -0.469303 85.7517
lradius 37.9831
lwrist 27.7483
lhand -19.8782 12.4271
lfingers 7.12502
lthumb 6.45735 42.3086
rfemur -40.6494 3.36538 22.2659
rtibia 29.6537
rfoot -1.9364 -9.45788
rtoes 2.52059
lfemur -33.9997 11.1002 -21.4324
ltibia 17.9755
lfoot 5.45762 -7.71798
ltoes -21.7582
107
root 46.6078 17.4686 -4.64157 -26.8104 85.5909 -53.4045
lowerback 15.5694 -1.34099 3.63051
upperback 4.80338 -0.993383 -0.136831
thorax -3.68916 -0.397784 -2.02069
lowerneck 2.24922 0.527039 2.58884
upperneck -17.5783 1.40476 0.725548
head -5.66192 0.633953 -0.29739
rclavicle 5.1684e-015 7.15625e-015
rhumerus -26.9769 1.64122 -90.0939
rradius 31.0837
rwrist -0.499105
rhand -21.932 -8.7185
rfingers 7.12502
rthumb 4.47446 -38.6512
lclavicle 5.1684e-015 7.15625e-015
lhumerus -28.535 -0.562228 85.78
lradius 38.0869
lwrist 27.774
lhand -19.8222 12.4134
lfingers 7.12502
lthumb 6.51146 42.2933
rfemur -40.7037 3.09934 22.314
rtibia 29.6102
rfoot -1.15788 -9.39815
rtoes 2.32848
lfemur -34.0253 10.848 -21.3179
ltibia 17.9473
lfoot 6.0991 -7.5306
ltoes -22.4366
108
root 46.6055 17.4969 -4.64268 -26.8353 85.6056 -53.3958
lowerback 15.5751 -1.34719 3.59939
upperback 4.84335 -1.00442 -0.13674
thorax -3.65023 -0.401097 -2.00116
lowerneck 2.22987 0.543277 2.61627
upperneck -17.4202 1.41526 0.697504
head -5.60858 0.638675 -0.310205
rclavicle -1.19271e-014 -4.81059e-014
rhumerus -26.9617 1.6798 -90.0882
rradius 31.1936
rwrist -0.585163
rhand -21.9607 -8.67664
rfingers 7.12502
rthumb 4.44669 -38.61
lclavicle -1.19271e-014 -4.81059e-014
lhumerus -28.5369 -0.645687 85.8059
lradius 38.1727
lwrist 27.7859
lhand -19.7825 12.3978
lfingers 7.12502
lthumb 6.54978 42.2765
rfemur -40.7312 2.8565 22.3421
rtibia 29.5703
rfoot -0.445071 -9.34181
rtoes 2.10358
lfemur -34.0257 10.6118 -21.209
ltibia 17.9173
lfoot 6.69274 -7.39081
ltoes -23.02
109
root 46.6036 17.522 -4.64406 -27.08 85.6203 -53.5806
lowerback 15.5784 -1.35749 3.58757
upperback 4.8889 -1.01769 -0.1353
thorax -3.60452 -0.405199 -1.99077
lowerneck 2.20724 0.556283 2.63662
upperneck -17.2511 1.42337 0.689099
head -5.55153 0.641391 -0.31545
rclavicle -5.56597e-015 1.59028e-015
rhumerus -26.9589 1.70493 -90.0773
rradius 31.2961
rwrist -0.679925
rhand -21.9935 -8.63725
rfingers 7.12502
rthumb 4.41502 -38.5712
lclavicle -5.56597e-015 1.59028e-015
lhumerus -28.5396 -0.714118 85.8264
lradius 38.2386
lwrist 27.7884
lhand -19.75 12.3857
lfingers 7.12502
lthumb 6.58115 42.2634
rfemur -40.7208 2.62628 22.3745
rtibia 29.5298
rfoot 0.210426 -9.27469
rtoes 1.87064
lfemur -33.9989 10.3951 -21.0884
ltibia 17.8965
lfoot 7.22931 -7.3024
ltoes -23.5278
